<?xml version="1.0" encoding="UTF-8"?>
<svg viewBox="0 0 500 300" xmlns="http://www.w3.org/2000/svg">
  <!-- Minivan Left Side View - VDS Template -->
  
  <rect x="0" y="0" width="500" height="300" fill="#f8fafc"/>
  
  <!-- Left Front Fender -->
  <path id="left_front_fender" 
        d="M 50,100 L 120,80 L 120,200 L 50,200 Z" 
        fill="#9ca3af" stroke="#6b7280" stroke-width="1.5" class="body-part"
        data-label-ar="الرفرف الأمامي الأيسر" data-label-en="Left Front Fender"/>
  
  <!-- Left Front Door -->
  <path id="left_front_door" 
        d="M 120,80 L 220,80 L 220,200 L 120,200 Z" 
        fill="#9ca3af" stroke="#6b7280" stroke-width="1.5" class="body-part"
        data-label-ar="الباب الأمامي الأيسر" data-label-en="Left Front Door"/>
  
  <!-- Left Sliding Door -->
  <path id="left_rear_door" 
        d="M 220,80 L 360,80 L 360,200 L 220,200 Z" 
        fill="#9ca3af" stroke="#6b7280" stroke-width="1.5" class="body-part"
        data-label-ar="الباب المنزلق الأيسر" data-label-en="Left Sliding Door"/>
  
  <!-- Left Rear Quarter Panel -->
  <path id="left_rear_quarter" 
        d="M 360,80 L 450,100 L 450,200 L 360,200 Z" 
        fill="#9ca3af" stroke="#6b7280" stroke-width="1.5" class="body-part"
        data-label-ar="الربع الخلفي الأيسر" data-label-en="Left Rear Quarter"/>
  
  <!-- Hood -->
  <path id="hood" 
        d="M 30,120 L 50,100 L 120,80 L 120,95 L 30,120 Z" 
        fill="#9ca3af" stroke="#6b7280" stroke-width="1.5" class="body-part"
        data-label-ar="الكبوت" data-label-en="Hood"/>
  
  <!-- Trunk/Tailgate -->
  <path id="trunk" 
        d="M 450,100 L 470,120 L 470,200 L 450,200 Z" 
        fill="#9ca3af" stroke="#6b7280" stroke-width="1.5" class="body-part"
        data-label-ar="باب الصندوق" data-label-en="Tailgate"/>
  
  <!-- Roof -->
  <path id="roof" 
        d="M 100,40 L 420,40 L 450,80 L 80,80 Z" 
        fill="#9ca3af" stroke="#6b7280" stroke-width="1.5" class="body-part"
        data-label-ar="السقف" data-label-en="Roof"/>
  
  <!-- Left Front Window -->
  <path id="left_front_window" 
        d="M 125,85 L 215,85 L 215,130 L 125,130 Z" 
        fill="#9ca3af" stroke="#6b7280" stroke-width="1.5" class="body-part"
        data-label-ar="النافذة الأمامية اليسرى" data-label-en="Left Front Window"/>
  
  <!-- Left Rear Window -->
  <path id="left_rear_window" 
        d="M 225,85 L 355,85 L 355,130 L 225,130 Z" 
        fill="#9ca3af" stroke="#6b7280" stroke-width="1.5" class="body-part"
        data-label-ar="النافذة الخلفية اليسرى" data-label-en="Left Rear Window"/>
  
  <!-- Left Mirror -->
  <path id="left_mirror" 
        d="M 105,90 L 120,85 L 120,110 L 105,115 Z" 
        fill="#9ca3af" stroke="#6b7280" stroke-width="1.5" class="body-part"
        data-label-ar="المرآة اليسرى" data-label-en="Left Mirror"/>
  
  <!-- Front Bumper -->
  <path id="front_bumper" 
        d="M 20,200 L 30,120 L 50,200 Z" 
        fill="#9ca3af" stroke="#6b7280" stroke-width="1.5" class="body-part"
        data-label-ar="الصدام الأمامي" data-label-en="Front Bumper"/>
  
  <!-- Rear Bumper -->
  <path id="rear_bumper" 
        d="M 450,200 L 470,120 L 480,200 Z" 
        fill="#9ca3af" stroke="#6b7280" stroke-width="1.5" class="body-part"
        data-label-ar="الصدام الخلفي" data-label-en="Rear Bumper"/>
  
  <!-- Front Left Wheel -->
  <ellipse id="wheel_front_left" 
           cx="90" cy="220" rx="40" ry="40" 
           fill="#9ca3af" stroke="#6b7280" stroke-width="1.5" class="body-part"
           data-label-ar="العجلة الأمامية اليسرى" data-label-en="Front Left Wheel"/>
  
  <!-- Rear Left Wheel -->
  <ellipse id="wheel_rear_left" 
           cx="400" cy="220" rx="40" ry="40" 
           fill="#9ca3af" stroke="#6b7280" stroke-width="1.5" class="body-part"
           data-label-ar="العجلة الخلفية اليسرى" data-label-en="Rear Left Wheel"/>
  
  <style>
    .body-part { cursor: pointer; transition: all 0.2s ease; }
    .body-part:hover { stroke: #1f2937; stroke-width: 2.5; filter: brightness(1.1); }
  </style>
</svg>
