<?xml version="1.0" encoding="UTF-8"?>
<svg viewBox="0 0 400 300" xmlns="http://www.w3.org/2000/svg">
  <!-- Minivan Front View - VDS Template -->
  
  <rect x="0" y="0" width="400" height="300" fill="#f8fafc"/>
  
  <!-- Front Bumper -->
  <path id="front_bumper" 
        d="M 50,230 L 350,230 L 360,270 L 40,270 Z" 
        fill="#9ca3af" stroke="#6b7280" stroke-width="1.5" class="body-part"
        data-label-ar="الصدام الأمامي" data-label-en="Front Bumper"/>
  
  <!-- Hood -->
  <path id="hood" 
        d="M 60,150 L 340,150 L 350,230 L 50,230 Z" 
        fill="#9ca3af" stroke="#6b7280" stroke-width="1.5" class="body-part"
        data-label-ar="الكبوت" data-label-en="Hood"/>
  
  <!-- Front Grille -->
  <path id="front_grille" 
        d="M 130,240 L 270,240 L 275,265 L 125,265 Z" 
        fill="#9ca3af" stroke="#6b7280" stroke-width="1.5" class="body-part"
        data-label-ar="الشبك الأمامي" data-label-en="Front Grille"/>
  
  <!-- Headlight Left -->
  <path id="headlight_left" 
        d="M 55,190 L 120,185 L 125,230 L 55,230 Z" 
        fill="#9ca3af" stroke="#6b7280" stroke-width="1.5" class="body-part"
        data-label-ar="المصباح الأمامي الأيسر" data-label-en="Left Headlight"/>
  
  <!-- Headlight Right -->
  <path id="headlight_right" 
        d="M 280,185 L 345,190 L 345,230 L 275,230 Z" 
        fill="#9ca3af" stroke="#6b7280" stroke-width="1.5" class="body-part"
        data-label-ar="المصباح الأمامي الأيمن" data-label-en="Right Headlight"/>
  
  <!-- Front Windshield -->
  <path id="front_windshield" 
        d="M 70,50 L 330,50 L 340,150 L 60,150 Z" 
        fill="#9ca3af" stroke="#6b7280" stroke-width="1.5" class="body-part"
        data-label-ar="الزجاج الأمامي" data-label-en="Front Windshield"/>
  
  <!-- Left Front Fender -->
  <path id="left_front_fender" 
        d="M 40,150 L 60,150 L 50,230 L 40,230 Z" 
        fill="#9ca3af" stroke="#6b7280" stroke-width="1.5" class="body-part"
        data-label-ar="الرفرف الأمامي الأيسر" data-label-en="Left Front Fender"/>
  
  <!-- Right Front Fender -->
  <path id="right_front_fender" 
        d="M 340,150 L 360,150 L 360,230 L 350,230 Z" 
        fill="#9ca3af" stroke="#6b7280" stroke-width="1.5" class="body-part"
        data-label-ar="الرفرف الأمامي الأيمن" data-label-en="Right Front Fender"/>
  
  <!-- Left Mirror -->
  <path id="left_mirror" 
        d="M 35,80 L 55,75 L 60,100 L 40,105 Z" 
        fill="#9ca3af" stroke="#6b7280" stroke-width="1.5" class="body-part"
        data-label-ar="المرآة اليسرى" data-label-en="Left Mirror"/>
  
  <!-- Right Mirror -->
  <path id="right_mirror" 
        d="M 345,75 L 365,80 L 360,105 L 340,100 Z" 
        fill="#9ca3af" stroke="#6b7280" stroke-width="1.5" class="body-part"
        data-label-ar="المرآة اليمنى" data-label-en="Right Mirror"/>
  
  <!-- Roof -->
  <path id="roof" 
        d="M 80,25 L 320,25 L 330,50 L 70,50 Z" 
        fill="#9ca3af" stroke="#6b7280" stroke-width="1.5" class="body-part"
        data-label-ar="السقف" data-label-en="Roof"/>
  
  <!-- Front Left Wheel -->
  <ellipse id="wheel_front_left" 
           cx="85" cy="280" rx="40" ry="18" 
           fill="#9ca3af" stroke="#6b7280" stroke-width="1.5" class="body-part"
           data-label-ar="العجلة الأمامية اليسرى" data-label-en="Front Left Wheel"/>
  
  <!-- Front Right Wheel -->
  <ellipse id="wheel_front_right" 
           cx="315" cy="280" rx="40" ry="18" 
           fill="#9ca3af" stroke="#6b7280" stroke-width="1.5" class="body-part"
           data-label-ar="العجلة الأمامية اليمنى" data-label-en="Front Right Wheel"/>
  
  <style>
    .body-part { cursor: pointer; transition: all 0.2s ease; }
    .body-part:hover { stroke: #1f2937; stroke-width: 2.5; filter: brightness(1.1); }
  </style>
</svg>
