<?xml version="1.0" encoding="UTF-8"?>
<svg viewBox="0 0 500 250" xmlns="http://www.w3.org/2000/svg">
  <!-- Sedan Left Side View - VDS Template -->
  <!-- Part IDs match Part_Keys from database -->
  
  <!-- Background -->
  <rect x="0" y="0" width="500" height="250" fill="#f8fafc"/>
  
  <!-- Front Bumper - الصدام الأمامي -->
  <path id="front_bumper" 
        d="M 20,140 L 50,130 L 55,180 L 20,185 Z" 
        fill="#9ca3af" stroke="#6b7280" stroke-width="1.5" class="body-part"
        data-label-ar="الصدام الأمامي" data-label-en="Front Bumper"/>
  
  <!-- Hood - الكبوت -->
  <path id="hood" 
        d="M 50,90 L 130,70 L 130,130 L 50,130 Z" 
        fill="#9ca3af" stroke="#6b7280" stroke-width="1.5" class="body-part"
        data-label-ar="الكبوت" data-label-en="Hood"/>
  
  <!-- Front Windshield - الزجاج الأمامي -->
  <path id="front_windshield" 
        d="M 130,70 L 180,40 L 180,90 L 130,90 Z" 
        fill="#9ca3af" stroke="#6b7280" stroke-width="1.5" class="body-part"
        data-label-ar="الزجاج الأمامي" data-label-en="Front Windshield"/>
  
  <!-- Roof - السقف -->
  <path id="roof" 
        d="M 180,35 L 340,35 L 340,50 L 180,40 Z" 
        fill="#9ca3af" stroke="#6b7280" stroke-width="1.5" class="body-part"
        data-label-ar="السقف" data-label-en="Roof"/>
  
  <!-- Left Front Fender - الرفرف الأمامي الأيسر -->
  <path id="left_front_fender" 
        d="M 50,130 L 130,130 L 130,180 L 55,180 Z" 
        fill="#9ca3af" stroke="#6b7280" stroke-width="1.5" class="body-part"
        data-label-ar="الرفرف الأمامي الأيسر" data-label-en="Left Front Fender"/>
  
  <!-- Left Front Door - الباب الأمامي الأيسر -->
  <path id="left_front_door" 
        d="M 130,90 L 230,90 L 230,180 L 130,180 Z" 
        fill="#9ca3af" stroke="#6b7280" stroke-width="1.5" class="body-part"
        data-label-ar="الباب الأمامي الأيسر" data-label-en="Left Front Door"/>
  
  <!-- Left Front Window - النافذة الأمامية اليسرى -->
  <path id="left_front_window" 
        d="M 135,50 L 180,40 L 180,85 L 135,85 Z" 
        fill="#9ca3af" stroke="#6b7280" stroke-width="1.5" class="body-part"
        data-label-ar="النافذة الأمامية اليسرى" data-label-en="Left Front Window"/>
  
  <!-- Left Rear Door - الباب الخلفي الأيسر -->
  <path id="left_rear_door" 
        d="M 230,90 L 330,90 L 330,180 L 230,180 Z" 
        fill="#9ca3af" stroke="#6b7280" stroke-width="1.5" class="body-part"
        data-label-ar="الباب الخلفي الأيسر" data-label-en="Left Rear Door"/>
  
  <!-- Left Rear Window - النافذة الخلفية اليسرى -->
  <path id="left_rear_window" 
        d="M 235,50 L 335,50 L 335,85 L 235,85 Z" 
        fill="#9ca3af" stroke="#6b7280" stroke-width="1.5" class="body-part"
        data-label-ar="النافذة الخلفية اليسرى" data-label-en="Left Rear Window"/>
  
  <!-- Left Rear Quarter - الربع الخلفي الأيسر -->
  <path id="left_rear_quarter" 
        d="M 330,90 L 400,100 L 400,180 L 330,180 Z" 
        fill="#9ca3af" stroke="#6b7280" stroke-width="1.5" class="body-part"
        data-label-ar="الربع الخلفي الأيسر" data-label-en="Left Rear Quarter"/>
  
  <!-- Rear Windshield - الزجاج الخلفي -->
  <path id="rear_windshield" 
        d="M 340,50 L 390,70 L 400,100 L 340,90 Z" 
        fill="#9ca3af" stroke="#6b7280" stroke-width="1.5" class="body-part"
        data-label-ar="الزجاج الخلفي" data-label-en="Rear Windshield"/>
  
  <!-- Trunk - الشنطة -->
  <path id="trunk" 
        d="M 400,100 L 450,110 L 450,140 L 400,140 Z" 
        fill="#9ca3af" stroke="#6b7280" stroke-width="1.5" class="body-part"
        data-label-ar="الشنطة" data-label-en="Trunk"/>
  
  <!-- Rear Bumper - الصدام الخلفي -->
  <path id="rear_bumper" 
        d="M 450,140 L 480,145 L 480,185 L 445,180 Z" 
        fill="#9ca3af" stroke="#6b7280" stroke-width="1.5" class="body-part"
        data-label-ar="الصدام الخلفي" data-label-en="Rear Bumper"/>
  
  <!-- Left Mirror - المرآة اليسرى -->
  <path id="left_mirror" 
        d="M 125,75 L 145,70 L 145,90 L 125,95 Z" 
        fill="#9ca3af" stroke="#6b7280" stroke-width="1.5" class="body-part"
        data-label-ar="المرآة اليسرى" data-label-en="Left Mirror"/>
  
  <!-- Headlight Left - المصباح الأمامي الأيسر -->
  <path id="headlight_left" 
        d="M 30,120 L 55,115 L 55,135 L 30,140 Z" 
        fill="#9ca3af" stroke="#6b7280" stroke-width="1.5" class="body-part"
        data-label-ar="المصباح الأمامي الأيسر" data-label-en="Left Headlight"/>
  
  <!-- Taillight Left - المصباح الخلفي الأيسر -->
  <path id="taillight_left" 
        d="M 455,115 L 475,120 L 475,145 L 455,140 Z" 
        fill="#9ca3af" stroke="#6b7280" stroke-width="1.5" class="body-part"
        data-label-ar="المصباح الخلفي الأيسر" data-label-en="Left Taillight"/>
  
  <!-- Front Left Wheel - العجلة الأمامية اليسرى -->
  <ellipse id="wheel_front_left" 
           cx="100" cy="200" rx="40" ry="35" 
           fill="#9ca3af" stroke="#6b7280" stroke-width="1.5" class="body-part"
           data-label-ar="العجلة الأمامية اليسرى" data-label-en="Front Left Wheel"/>
  
  <!-- Rear Left Wheel - العجلة الخلفية اليسرى -->
  <ellipse id="wheel_rear_left" 
           cx="380" cy="200" rx="40" ry="35" 
           fill="#9ca3af" stroke="#6b7280" stroke-width="1.5" class="body-part"
           data-label-ar="العجلة الخلفية اليسرى" data-label-en="Rear Left Wheel"/>
  
  <!-- Style definitions -->
  <style>
    .body-part { 
      cursor: pointer; 
      transition: all 0.2s ease;
    }
    .body-part:hover { 
      stroke: #1f2937; 
      stroke-width: 2.5; 
      filter: brightness(1.1);
    }
  </style>
</svg>
