<?xml version="1.0" encoding="UTF-8"?>
<svg viewBox="0 0 500 250" xmlns="http://www.w3.org/2000/svg">
  <!-- Hatchback Left Side View - VDS Template -->
  
  <rect x="0" y="0" width="500" height="250" fill="#f8fafc"/>
  
  <!-- Front Bumper -->
  <path id="front_bumper" 
        d="M 20,140 L 50,130 L 55,180 L 20,185 Z" 
        fill="#9ca3af" stroke="#6b7280" stroke-width="1.5" class="body-part"
        data-label-ar="الصدام الأمامي" data-label-en="Front Bumper"/>
  
  <!-- Hood -->
  <path id="hood" 
        d="M 50,95 L 120,75 L 120,130 L 50,130 Z" 
        fill="#9ca3af" stroke="#6b7280" stroke-width="1.5" class="body-part"
        data-label-ar="الكبوت" data-label-en="Hood"/>
  
  <!-- Front Windshield -->
  <path id="front_windshield" 
        d="M 120,75 L 165,45 L 165,90 L 120,90 Z" 
        fill="#9ca3af" stroke="#6b7280" stroke-width="1.5" class="body-part"
        data-label-ar="الزجاج الأمامي" data-label-en="Front Windshield"/>
  
  <!-- Roof -->
  <path id="roof" 
        d="M 165,40 L 350,40 L 350,55 L 165,45 Z" 
        fill="#9ca3af" stroke="#6b7280" stroke-width="1.5" class="body-part"
        data-label-ar="السقف" data-label-en="Roof"/>
  
  <!-- Left Front Fender -->
  <path id="left_front_fender" 
        d="M 50,130 L 120,130 L 120,180 L 55,180 Z" 
        fill="#9ca3af" stroke="#6b7280" stroke-width="1.5" class="body-part"
        data-label-ar="الرفرف الأمامي الأيسر" data-label-en="Left Front Fender"/>
  
  <!-- Left Front Door -->
  <path id="left_front_door" 
        d="M 120,90 L 220,90 L 220,180 L 120,180 Z" 
        fill="#9ca3af" stroke="#6b7280" stroke-width="1.5" class="body-part"
        data-label-ar="الباب الأمامي الأيسر" data-label-en="Left Front Door"/>
  
  <!-- Left Front Window -->
  <path id="left_front_window" 
        d="M 125,50 L 165,45 L 165,85 L 125,85 Z" 
        fill="#9ca3af" stroke="#6b7280" stroke-width="1.5" class="body-part"
        data-label-ar="النافذة الأمامية اليسرى" data-label-en="Left Front Window"/>
  
  <!-- Left Rear Door -->
  <path id="left_rear_door" 
        d="M 220,90 L 320,90 L 320,180 L 220,180 Z" 
        fill="#9ca3af" stroke="#6b7280" stroke-width="1.5" class="body-part"
        data-label-ar="الباب الخلفي الأيسر" data-label-en="Left Rear Door"/>
  
  <!-- Left Rear Window -->
  <path id="left_rear_window" 
        d="M 225,50 L 325,50 L 325,85 L 225,85 Z" 
        fill="#9ca3af" stroke="#6b7280" stroke-width="1.5" class="body-part"
        data-label-ar="النافذة الخلفية اليسرى" data-label-en="Left Rear Window"/>
  
  <!-- Left Rear Quarter - shorter for hatchback -->
  <path id="left_rear_quarter" 
        d="M 320,90 L 380,100 L 380,180 L 320,180 Z" 
        fill="#9ca3af" stroke="#6b7280" stroke-width="1.5" class="body-part"
        data-label-ar="الربع الخلفي الأيسر" data-label-en="Left Rear Quarter"/>
  
  <!-- Rear Windshield - steep angle -->
  <path id="rear_windshield" 
        d="M 350,55 L 420,100 L 420,130 L 350,90 Z" 
        fill="#9ca3af" stroke="#6b7280" stroke-width="1.5" class="body-part"
        data-label-ar="الزجاج الخلفي" data-label-en="Rear Windshield"/>
  
  <!-- Trunk/Hatch -->
  <path id="trunk" 
        d="M 380,100 L 420,100 L 420,140 L 380,140 Z" 
        fill="#9ca3af" stroke="#6b7280" stroke-width="1.5" class="body-part"
        data-label-ar="باب الصندوق" data-label-en="Hatch"/>
  
  <!-- Rear Bumper -->
  <path id="rear_bumper" 
        d="M 420,140 L 480,145 L 480,185 L 415,180 Z" 
        fill="#9ca3af" stroke="#6b7280" stroke-width="1.5" class="body-part"
        data-label-ar="الصدام الخلفي" data-label-en="Rear Bumper"/>
  
  <!-- Left Mirror -->
  <path id="left_mirror" 
        d="M 115,75 L 135,70 L 135,90 L 115,95 Z" 
        fill="#9ca3af" stroke="#6b7280" stroke-width="1.5" class="body-part"
        data-label-ar="المرآة اليسرى" data-label-en="Left Mirror"/>
  
  <!-- Headlight Left -->
  <path id="headlight_left" 
        d="M 30,120 L 55,115 L 55,135 L 30,140 Z" 
        fill="#9ca3af" stroke="#6b7280" stroke-width="1.5" class="body-part"
        data-label-ar="المصباح الأمامي الأيسر" data-label-en="Left Headlight"/>
  
  <!-- Taillight Left -->
  <path id="taillight_left" 
        d="M 425,115 L 445,120 L 445,145 L 425,140 Z" 
        fill="#9ca3af" stroke="#6b7280" stroke-width="1.5" class="body-part"
        data-label-ar="المصباح الخلفي الأيسر" data-label-en="Left Taillight"/>
  
  <!-- Front Left Wheel -->
  <ellipse id="wheel_front_left" 
           cx="95" cy="200" rx="40" ry="35" 
           fill="#9ca3af" stroke="#6b7280" stroke-width="1.5" class="body-part"
           data-label-ar="العجلة الأمامية اليسرى" data-label-en="Front Left Wheel"/>
  
  <!-- Rear Left Wheel -->
  <ellipse id="wheel_rear_left" 
           cx="360" cy="200" rx="40" ry="35" 
           fill="#9ca3af" stroke="#6b7280" stroke-width="1.5" class="body-part"
           data-label-ar="العجلة الخلفية اليسرى" data-label-en="Rear Left Wheel"/>
  
  <style>
    .body-part { cursor: pointer; transition: all 0.2s ease; }
    .body-part:hover { stroke: #1f2937; stroke-width: 2.5; filter: brightness(1.1); }
  </style>
</svg>
