<?xml version="1.0" encoding="UTF-8"?>
<svg viewBox="0 0 400 300" xmlns="http://www.w3.org/2000/svg">
  <!-- Hatchback Rear View - VDS Template -->
  
  <rect x="0" y="0" width="400" height="300" fill="#f8fafc"/>
  
  <!-- Rear Bumper -->
  <path id="rear_bumper" 
        d="M 70,215 L 330,215 L 340,255 L 60,255 Z" 
        fill="#9ca3af" stroke="#6b7280" stroke-width="1.5" class="body-part"
        data-label-ar="الصدام الخلفي" data-label-en="Rear Bumper"/>
  
  <!-- Trunk/Hatch - steep angle -->
  <path id="trunk" 
        d="M 90,80 L 310,80 L 330,215 L 70,215 Z" 
        fill="#9ca3af" stroke="#6b7280" stroke-width="1.5" class="body-part"
        data-label-ar="باب الصندوق" data-label-en="Hatch"/>
  
  <!-- Taillight Left -->
  <path id="taillight_left" 
        d="M 75,130 L 110,125 L 115,190 L 75,190 Z" 
        fill="#9ca3af" stroke="#6b7280" stroke-width="1.5" class="body-part"
        data-label-ar="المصباح الخلفي الأيسر" data-label-en="Left Taillight"/>
  
  <!-- Taillight Right -->
  <path id="taillight_right" 
        d="M 290,125 L 325,130 L 325,190 L 285,190 Z" 
        fill="#9ca3af" stroke="#6b7280" stroke-width="1.5" class="body-part"
        data-label-ar="المصباح الخلفي الأيمن" data-label-en="Right Taillight"/>
  
  <!-- Rear Windshield - large and steep -->
  <path id="rear_windshield" 
        d="M 110,55 L 290,55 L 300,80 L 100,80 Z" 
        fill="#9ca3af" stroke="#6b7280" stroke-width="1.5" class="body-part"
        data-label-ar="الزجاج الخلفي" data-label-en="Rear Windshield"/>
  
  <!-- Left Rear Quarter -->
  <path id="left_rear_quarter" 
        d="M 55,100 L 90,80 L 70,215 L 55,215 Z" 
        fill="#9ca3af" stroke="#6b7280" stroke-width="1.5" class="body-part"
        data-label-ar="الربع الخلفي الأيسر" data-label-en="Left Rear Quarter"/>
  
  <!-- Right Rear Quarter -->
  <path id="right_rear_quarter" 
        d="M 310,80 L 345,100 L 345,215 L 330,215 Z" 
        fill="#9ca3af" stroke="#6b7280" stroke-width="1.5" class="body-part"
        data-label-ar="الربع الخلفي الأيمن" data-label-en="Right Rear Quarter"/>
  
  <!-- Roof -->
  <path id="roof" 
        d="M 120,35 L 280,35 L 290,55 L 110,55 Z" 
        fill="#9ca3af" stroke="#6b7280" stroke-width="1.5" class="body-part"
        data-label-ar="السقف" data-label-en="Roof"/>
  
  <!-- Rear Left Wheel -->
  <ellipse id="wheel_rear_left" 
           cx="100" cy="265" rx="35" ry="20" 
           fill="#9ca3af" stroke="#6b7280" stroke-width="1.5" class="body-part"
           data-label-ar="العجلة الخلفية اليسرى" data-label-en="Rear Left Wheel"/>
  
  <!-- Rear Right Wheel -->
  <ellipse id="wheel_rear_right" 
           cx="300" cy="265" rx="35" ry="20" 
           fill="#9ca3af" stroke="#6b7280" stroke-width="1.5" class="body-part"
           data-label-ar="العجلة الخلفية اليمنى" data-label-en="Rear Right Wheel"/>
  
  <style>
    .body-part { cursor: pointer; transition: all 0.2s ease; }
    .body-part:hover { stroke: #1f2937; stroke-width: 2.5; filter: brightness(1.1); }
  </style>
</svg>
