<?xml version="1.0" encoding="UTF-8"?>
<svg viewBox="0 0 400 320" xmlns="http://www.w3.org/2000/svg">
  <!-- Pickup Front View - VDS Template -->
  <rect x="0" y="0" width="400" height="320" fill="#f8fafc"/>
  
  <path id="front_bumper" d="M 50,235 L 350,235 L 360,280 L 40,280 Z" fill="#9ca3af" stroke="#6b7280" stroke-width="1.5" class="body-part"/>
  <path id="hood" d="M 65,130 L 335,130 L 350,235 L 50,235 Z" fill="#9ca3af" stroke="#6b7280" stroke-width="1.5" class="body-part"/>
  <path id="front_grille" d="M 125,245 L 275,245 L 280,275 L 120,275 Z" fill="#9ca3af" stroke="#6b7280" stroke-width="1.5" class="body-part"/>
  <path id="headlight_left" d="M 55,185 L 120,180 L 125,235 L 55,235 Z" fill="#9ca3af" stroke="#6b7280" stroke-width="1.5" class="body-part"/>
  <path id="headlight_right" d="M 280,180 L 345,185 L 345,235 L 275,235 Z" fill="#9ca3af" stroke="#6b7280" stroke-width="1.5" class="body-part"/>
  <path id="front_windshield" d="M 85,50 L 315,50 L 335,130 L 65,130 Z" fill="#9ca3af" stroke="#6b7280" stroke-width="1.5" class="body-part"/>
  <path id="left_front_fender" d="M 35,150 L 65,130 L 50,235 L 35,235 Z" fill="#9ca3af" stroke="#6b7280" stroke-width="1.5" class="body-part"/>
  <path id="right_front_fender" d="M 335,130 L 365,150 L 365,235 L 350,235 Z" fill="#9ca3af" stroke="#6b7280" stroke-width="1.5" class="body-part"/>
  <path id="left_mirror" d="M 30,95 L 50,90 L 55,115 L 35,120 Z" fill="#9ca3af" stroke="#6b7280" stroke-width="1.5" class="body-part"/>
  <path id="right_mirror" d="M 350,90 L 370,95 L 365,120 L 345,115 Z" fill="#9ca3af" stroke="#6b7280" stroke-width="1.5" class="body-part"/>
  <path id="roof" d="M 95,25 L 305,25 L 315,50 L 85,50 Z" fill="#9ca3af" stroke="#6b7280" stroke-width="1.5" class="body-part"/>
  <ellipse id="wheel_front_left" cx="80" cy="295" rx="42" ry="22" fill="#9ca3af" stroke="#6b7280" stroke-width="1.5" class="body-part"/>
  <ellipse id="wheel_front_right" cx="320" cy="295" rx="42" ry="22" fill="#9ca3af" stroke="#6b7280" stroke-width="1.5" class="body-part"/>
</svg>
