<?xml version="1.0" encoding="UTF-8"?>
<svg viewBox="0 0 520 280" xmlns="http://www.w3.org/2000/svg">
  <!-- Pickup Right Side View - VDS Template -->
  <rect x="0" y="0" width="520" height="280" fill="#f8fafc"/>
  
  <path id="rear_bumper" d="M 20,160 L 45,155 L 45,200 L 20,205 Z" fill="#9ca3af" stroke="#6b7280" stroke-width="1.5" class="body-part"/>
  <path id="right_rear_quarter" d="M 40,95 L 200,95 L 200,200 L 40,200 Z" fill="#9ca3af" stroke="#6b7280" stroke-width="1.5" class="body-part"/>
  <path id="rear_windshield" d="M 190,70 L 210,50 L 210,95 L 190,95 Z" fill="#9ca3af" stroke="#6b7280" stroke-width="1.5" class="body-part"/>
  <path id="roof" d="M 210,35 L 335,45 L 335,50 L 210,50 Z" fill="#9ca3af" stroke="#6b7280" stroke-width="1.5" class="body-part"/>
  <path id="right_rear_door" d="M 200,95 L 270,95 L 270,200 L 200,200 Z" fill="#9ca3af" stroke="#6b7280" stroke-width="1.5" class="body-part"/>
  <path id="right_rear_window" d="M 215,50 L 265,50 L 265,90 L 215,90 Z" fill="#9ca3af" stroke="#6b7280" stroke-width="1.5" class="body-part"/>
  <path id="right_front_door" d="M 270,95 L 380,95 L 380,200 L 270,200 Z" fill="#9ca3af" stroke="#6b7280" stroke-width="1.5" class="body-part"/>
  <path id="right_front_window" d="M 335,45 L 375,50 L 375,90 L 335,90 Z" fill="#9ca3af" stroke="#6b7280" stroke-width="1.5" class="body-part"/>
  <path id="front_windshield" d="M 335,45 L 380,80 L 380,95 L 335,95 Z" fill="#9ca3af" stroke="#6b7280" stroke-width="1.5" class="body-part"/>
  <path id="right_front_fender" d="M 380,145 L 465,145 L 460,200 L 380,200 Z" fill="#9ca3af" stroke="#6b7280" stroke-width="1.5" class="body-part"/>
  <path id="hood" d="M 380,80 L 465,95 L 465,145 L 380,145 Z" fill="#9ca3af" stroke="#6b7280" stroke-width="1.5" class="body-part"/>
  <path id="front_bumper" d="M 460,145 L 500,155 L 500,205 L 460,200 Z" fill="#9ca3af" stroke="#6b7280" stroke-width="1.5" class="body-part"/>
  <path id="right_mirror" d="M 365,75 L 385,80 L 385,105 L 365,100 Z" fill="#9ca3af" stroke="#6b7280" stroke-width="1.5" class="body-part"/>
  <path id="taillight_right" d="M 22,105 L 35,100 L 35,155 L 22,160 Z" fill="#9ca3af" stroke="#6b7280" stroke-width="1.5" class="body-part"/>
  <path id="headlight_right" d="M 460,125 L 490,130 L 490,155 L 460,150 Z" fill="#9ca3af" stroke="#6b7280" stroke-width="1.5" class="body-part"/>
  <ellipse id="wheel_rear_right" cx="100" cy="225" rx="48" ry="42" fill="#9ca3af" stroke="#6b7280" stroke-width="1.5" class="body-part"/>
  <ellipse id="wheel_front_right" cx="410" cy="225" rx="48" ry="42" fill="#9ca3af" stroke="#6b7280" stroke-width="1.5" class="body-part"/>
</svg>
