<?xml version="1.0" encoding="UTF-8"?>
<svg viewBox="0 0 400 300" xmlns="http://www.w3.org/2000/svg">
  <!-- Coupe Front View - VDS Template -->
  
  <rect x="0" y="0" width="400" height="300" fill="#f8fafc"/>
  
  <!-- Front Bumper - sporty low -->
  <path id="front_bumper" 
        d="M 55,225 L 345,225 L 355,265 L 45,265 Z" 
        fill="#9ca3af" stroke="#6b7280" stroke-width="1.5" class="body-part"
        data-label-ar="الصدام الأمامي" data-label-en="Front Bumper"/>
  
  <!-- Hood - long and low -->
  <path id="hood" 
        d="M 75,130 L 325,130 L 345,225 L 55,225 Z" 
        fill="#9ca3af" stroke="#6b7280" stroke-width="1.5" class="body-part"
        data-label-ar="الكبوت" data-label-en="Hood"/>
  
  <!-- Front Grille - wide -->
  <path id="front_grille" 
        d="M 130,235 L 270,235 L 275,260 L 125,260 Z" 
        fill="#9ca3af" stroke="#6b7280" stroke-width="1.5" class="body-part"
        data-label-ar="الشبك الأمامي" data-label-en="Front Grille"/>
  
  <!-- Headlight Left - aggressive -->
  <path id="headlight_left" 
        d="M 65,185 L 125,175 L 130,225 L 60,225 Z" 
        fill="#9ca3af" stroke="#6b7280" stroke-width="1.5" class="body-part"
        data-label-ar="المصباح الأمامي الأيسر" data-label-en="Left Headlight"/>
  
  <!-- Headlight Right -->
  <path id="headlight_right" 
        d="M 275,175 L 335,185 L 340,225 L 270,225 Z" 
        fill="#9ca3af" stroke="#6b7280" stroke-width="1.5" class="body-part"
        data-label-ar="المصباح الأمامي الأيمن" data-label-en="Right Headlight"/>
  
  <!-- Front Windshield - sloped -->
  <path id="front_windshield" 
        d="M 95,60 L 305,60 L 325,130 L 75,130 Z" 
        fill="#9ca3af" stroke="#6b7280" stroke-width="1.5" class="body-part"
        data-label-ar="الزجاج الأمامي" data-label-en="Front Windshield"/>
  
  <!-- Left Front Fender -->
  <path id="left_front_fender" 
        d="M 45,150 L 75,130 L 55,225 L 45,225 Z" 
        fill="#9ca3af" stroke="#6b7280" stroke-width="1.5" class="body-part"
        data-label-ar="الرفرف الأمامي الأيسر" data-label-en="Left Front Fender"/>
  
  <!-- Right Front Fender -->
  <path id="right_front_fender" 
        d="M 325,130 L 355,150 L 355,225 L 345,225 Z" 
        fill="#9ca3af" stroke="#6b7280" stroke-width="1.5" class="body-part"
        data-label-ar="الرفرف الأمامي الأيمن" data-label-en="Right Front Fender"/>
  
  <!-- Left Mirror -->
  <path id="left_mirror" 
        d="M 40,100 L 55,95 L 60,115 L 45,120 Z" 
        fill="#9ca3af" stroke="#6b7280" stroke-width="1.5" class="body-part"
        data-label-ar="المرآة اليسرى" data-label-en="Left Mirror"/>
  
  <!-- Right Mirror -->
  <path id="right_mirror" 
        d="M 345,95 L 360,100 L 355,120 L 340,115 Z" 
        fill="#9ca3af" stroke="#6b7280" stroke-width="1.5" class="body-part"
        data-label-ar="المرآة اليمنى" data-label-en="Right Mirror"/>
  
  <!-- Roof - low profile -->
  <path id="roof" 
        d="M 105,40 L 295,40 L 305,60 L 95,60 Z" 
        fill="#9ca3af" stroke="#6b7280" stroke-width="1.5" class="body-part"
        data-label-ar="السقف" data-label-en="Roof"/>
  
  <!-- Front Left Wheel -->
  <ellipse id="wheel_front_left" 
           cx="90" cy="275" rx="38" ry="22" 
           fill="#9ca3af" stroke="#6b7280" stroke-width="1.5" class="body-part"
           data-label-ar="العجلة الأمامية اليسرى" data-label-en="Front Left Wheel"/>
  
  <!-- Front Right Wheel -->
  <ellipse id="wheel_front_right" 
           cx="310" cy="275" rx="38" ry="22" 
           fill="#9ca3af" stroke="#6b7280" stroke-width="1.5" class="body-part"
           data-label-ar="العجلة الأمامية اليمنى" data-label-en="Front Right Wheel"/>
  
  <style>
    .body-part { cursor: pointer; transition: all 0.2s ease; }
    .body-part:hover { stroke: #1f2937; stroke-width: 2.5; filter: brightness(1.1); }
  </style>
</svg>
