<?xml version="1.0" encoding="UTF-8"?>
<svg viewBox="0 0 400 320" xmlns="http://www.w3.org/2000/svg">
  <!-- Van Front View - VDS Template -->
  
  <rect x="0" y="0" width="400" height="320" fill="#f8fafc"/>
  
  <!-- Front Bumper -->
  <path id="front_bumper" 
        d="M 50,250 L 350,250 L 360,290 L 40,290 Z" 
        fill="#9ca3af" stroke="#6b7280" stroke-width="1.5" class="body-part"
        data-label-ar="الصدام الأمامي" data-label-en="Front Bumper"/>
  
  <!-- Hood - short flat -->
  <path id="hood" 
        d="M 60,180 L 340,180 L 350,250 L 50,250 Z" 
        fill="#9ca3af" stroke="#6b7280" stroke-width="1.5" class="body-part"
        data-label-ar="الكبوت" data-label-en="Hood"/>
  
  <!-- Front Grille -->
  <path id="front_grille" 
        d="M 140,260 L 260,260 L 265,285 L 135,285 Z" 
        fill="#9ca3af" stroke="#6b7280" stroke-width="1.5" class="body-part"
        data-label-ar="الشبك الأمامي" data-label-en="Front Grille"/>
  
  <!-- Headlight Left -->
  <path id="headlight_left" 
        d="M 55,200 L 130,195 L 135,250 L 55,250 Z" 
        fill="#9ca3af" stroke="#6b7280" stroke-width="1.5" class="body-part"
        data-label-ar="المصباح الأمامي الأيسر" data-label-en="Left Headlight"/>
  
  <!-- Headlight Right -->
  <path id="headlight_right" 
        d="M 270,195 L 345,200 L 345,250 L 265,250 Z" 
        fill="#9ca3af" stroke="#6b7280" stroke-width="1.5" class="body-part"
        data-label-ar="المصباح الأمامي الأيمن" data-label-en="Right Headlight"/>
  
  <!-- Front Windshield - tall upright -->
  <path id="front_windshield" 
        d="M 70,60 L 330,60 L 340,180 L 60,180 Z" 
        fill="#9ca3af" stroke="#6b7280" stroke-width="1.5" class="body-part"
        data-label-ar="الزجاج الأمامي" data-label-en="Front Windshield"/>
  
  <!-- Left Front Fender -->
  <path id="left_front_fender" 
        d="M 40,190 L 60,180 L 50,250 L 40,250 Z" 
        fill="#9ca3af" stroke="#6b7280" stroke-width="1.5" class="body-part"
        data-label-ar="الرفرف الأمامي الأيسر" data-label-en="Left Front Fender"/>
  
  <!-- Right Front Fender -->
  <path id="right_front_fender" 
        d="M 340,180 L 360,190 L 360,250 L 350,250 Z" 
        fill="#9ca3af" stroke="#6b7280" stroke-width="1.5" class="body-part"
        data-label-ar="الرفرف الأمامي الأيمن" data-label-en="Right Front Fender"/>
  
  <!-- Left Mirror -->
  <path id="left_mirror" 
        d="M 30,100 L 50,95 L 55,125 L 35,130 Z" 
        fill="#9ca3af" stroke="#6b7280" stroke-width="1.5" class="body-part"
        data-label-ar="المرآة اليسرى" data-label-en="Left Mirror"/>
  
  <!-- Right Mirror -->
  <path id="right_mirror" 
        d="M 350,95 L 370,100 L 365,130 L 345,125 Z" 
        fill="#9ca3af" stroke="#6b7280" stroke-width="1.5" class="body-part"
        data-label-ar="المرآة اليمنى" data-label-en="Right Mirror"/>
  
  <!-- Roof - flat wide -->
  <path id="roof" 
        d="M 80,30 L 320,30 L 330,60 L 70,60 Z" 
        fill="#9ca3af" stroke="#6b7280" stroke-width="1.5" class="body-part"
        data-label-ar="السقف" data-label-en="Roof"/>
  
  <!-- Front Left Wheel -->
  <ellipse id="wheel_front_left" 
           cx="90" cy="300" rx="40" ry="22" 
           fill="#9ca3af" stroke="#6b7280" stroke-width="1.5" class="body-part"
           data-label-ar="العجلة الأمامية اليسرى" data-label-en="Front Left Wheel"/>
  
  <!-- Front Right Wheel -->
  <ellipse id="wheel_front_right" 
           cx="310" cy="300" rx="40" ry="22" 
           fill="#9ca3af" stroke="#6b7280" stroke-width="1.5" class="body-part"
           data-label-ar="العجلة الأمامية اليمنى" data-label-en="Front Right Wheel"/>
  
  <style>
    .body-part { cursor: pointer; transition: all 0.2s ease; }
    .body-part:hover { stroke: #1f2937; stroke-width: 2.5; filter: brightness(1.1); }
  </style>
</svg>
